<?xml version="1.0" encoding="utf-8"?>
<!-- Generator: Adobe Illustrator 23.0.5, SVG Export Plug-In . SVG Version: 6.00 Build 0)  -->
<svg version="1.1" xmlns="http://www.w3.org/2000/svg" xmlns:xlink="http://www.w3.org/1999/xlink" x="0px" y="0px"
	 viewBox="0 0 1366 768" style="enable-background:new 0 0 1366 768;" xml:space="preserve">
<g id="Capa_1">
	<g>
		<g>
			<path d="M940.82,439.38c-3.54,6.71-6.94,13-10.19,19.37c-8.12,15.96-16.27,31.9-24.18,47.97c-2.04,4.15-4.6,5.93-9.37,5.92
				c-4.79,0-7.24-1.91-9.33-5.99c-12.04-23.49-24.3-46.86-37.47-70.15c0,5.41,0,10.82,0,16.23c0,17.69-0.13,35.39,0.07,53.08
				c0.05,4.87-1.4,6.86-6.54,6.75c-15.91-0.35-13.54,1.34-13.59-13.02c-0.12-33.68,0.11-67.37-0.16-101.05
				c-0.05-6.33,1.9-7.76,8.2-8.67c16.92-2.47,26.11,3.86,32.72,19.78c8.71,20.98,20.39,40.72,30.93,61.25
				c2.81-1.13,3.17-3.67,4.15-5.6c11.66-23.01,23.34-46,34.77-69.13c2.19-4.44,4.91-6.43,9.9-6.09c5.3,0.37,10.67,0.35,15.98,0.01
				c5.61-0.36,7.49,1.92,7.43,7.42c-0.2,20.68-0.07,41.36-0.08,62.04c0,15.35-0.13,30.7,0.06,46.05c0.07,5.23-1.84,7.3-7.13,7
				c-5.95-0.34-11.95-0.36-17.9,0.01c-5.39,0.33-7.11-1.93-7.07-7.05c0.15-19.61,0.08-39.23,0.01-58.84
				C942.01,444.47,942.78,442.08,940.82,439.38z"/>
			<path d="M316.36,349.97c7.75,3.72,16.07,6.22,22.71,12.3c9.31,8.51,12.41,19.61,14.73,31.17c0.95,4.72-2.47,5.86-6.26,5.93
				c-8.96,0.18-17.92,0.2-26.87,0.36c-1.86,0.03-4.34-0.84-5.43,0.82c-1.32,2.02,1.24,3.24,2.24,4.71
				c4.93,7.26,5.03,12.13,0.02,19.4c-4.27,6.19-10.56,9.78-17.25,12.74c-1.16,0.51-2.58,0.99-3.47-0.34
				c-0.86-1.29,0.03-2.42,0.91-3.39c0.86-0.95,1.76-1.85,2.65-2.77c6.6-6.82,7.25-14.65,1.91-22.59c-3.37-5.02-7.8-8.99-12.43-12.79
				c-1.44-1.18-3.39-2.48-2.78-4.66c0.69-2.5,3.19-2.71,5.28-2.74c9.59-0.14,19.21-0.49,28.78-0.01c4.72,0.23,9.35-0.35,14.02-0.23
				c4.24,0.11,4.66-1.82,2.92-5.18c-7.36-14.26-18.86-22.18-35.01-22.98c-3.83-0.19-7.68-0.04-11.51-0.17
				c-1.68-0.05-3.64-0.11-4.26-2.1c-0.65-2.08,1.17-2.99,2.48-4.02c13.36-10.47,28.14-18.53,43.78-24.89
				c26.81-10.91,54.94-16.05,83.62-19.55c26.63-3.25,53.21-1.34,79.81-1.81c23.88-0.42,47.82-0.88,71.66,0.31
				c62.24,3.1,124.5,2.4,186.74,1.57c18.87-0.25,37.93-0.75,56.55-4.76c7.29-1.57,14.3-4.23,20.02-9.39
				c6.12-5.51,6.02-9.84-1.01-14.25c-9.15-5.73-19.44-8.54-30.02-10.35c-29.4-5.03-59.15-5.16-88.64-3.26
				c-24.49,1.57-49.36,4.07-72.21,14.86c-3.46,1.64-6.8,3.55-10.22,5.28c-0.93,0.47-2.09,1.07-2.92,0.06
				c-1.14-1.38-0.01-2.51,1-3.16c3.4-2.18,6.77-4.49,10.42-6.18c19.72-9.11,40.5-13.8,62.1-16.14c18.46-2,36.94-3.56,55.42-3.02
				c20.8,0.6,41.81,0.62,62.14,6.22c8.6,2.37,17.3,4.75,23.91,11.44c6.6,6.69,7.32,12.14,1.99,19.95
				c-7.21,10.59-17.92,15.57-30.12,17.36c-22.36,3.28-44.96,4.05-67.49,4.93c-64.37,2.53-128.78,2.36-193.17,1.19
				c-36-0.66-71.98-3.11-108.01-2.29c-29.49,0.67-58.34,5.42-86.45,14.74c-12.56,4.17-24.99,8.56-37.03,14.02
				C319.78,347.15,317.26,347.06,316.36,349.97z"/>
			<path d="M911.33,288.33c-24.54-10.84-49.55-19.6-75.75-24.98c-24.89-5.11-49.84-8.72-75.32-8.44c-20.67,0.23-41.41-0.6-61.97,1.7
				c-14.84,1.66-29.13,6.25-43.23,11.13c-19.33,6.7-38.29,14.38-57.12,22.38c-2.16,0.92-4.39,1.66-6.61,2.41
				c-1.19,0.41-2.67,0.96-3.28-0.64c-0.58-1.51,0.77-2.24,1.88-2.89c4.79-2.77,9.43-5.88,14.41-8.25
				c29.72-14.15,60.39-25.53,92.9-31.5c11.98-2.2,24.14-3.19,36.21-3.58c39.23-1.28,78.26,0.27,117.18,6.88
				c43,7.3,84.84,18.5,125.92,32.75c11.86,4.11,23.79,5.57,36.14,6.88c20.11,2.14,40.28,3.28,60.4,5.07
				c4.06,0.36,7.98,1.46,11.6,3.39c1.84,0.98,4.4,1.85,3.85,4.44c-0.59,2.8-3.36,2.18-5.36,2.05c-7.01-0.45-14.04-0.88-21.01-1.7
				c-20.99-2.46-42.09-2.63-63.16-3.14c-17.06-0.41-34.13-0.26-51.19-0.03c-33.53,0.45-66.69,4.09-99.28,12.21
				c-4.12,1.03-8.03,2.85-12.14,3.96c-2.02,0.54-4.95,2.82-6.19-0.11c-1.08-2.57,2.24-3.79,4.06-4.95c4.13-2.63,8.39-5.1,12.79-7.24
				C867.33,296.25,888.54,289.66,911.33,288.33z"/>
			<path d="M464.37,515.16c-22.45-0.56-42.66-6.96-57.36-24.79c-25.15-30.52-15.18-76.3,19.94-94.38
				c28.02-14.42,71.5-13.13,93.17,18.68c2.27,3.33,4.56,5.99-0.28,9.46c-8.72,6.26-8.89,6.56-13.44,0.94
				c-3.5-4.33-7.24-8.39-11.69-11.75c-25.4-19.19-57.35-7.96-64.75,23.04c-3.62,15.19-2.54,30.07,5.98,43.75
				c12.55,20.16,39.13,24.79,57.79,10.17c5.27-4.12,9.49-9.2,13.39-14.52c2.32-3.15,4.28-3.19,7.39-1.09
				c9.95,6.69,10.24,7.28,2.52,16.12C503.14,506.68,486.02,515.8,464.37,515.16z"/>
			<path d="M657.75,481.88c3.9-13.9-3.6-27-14.01-39.79c-11.96-14.7-22.74-30.36-33.98-45.64c-1.08-1.47-3.07-2.97-2.04-5
				c1.03-2.04,3.42-1.23,5.24-1.28c24.88-0.69,24.88-0.67,39.44,19.1c7.33,9.95,14.83,19.79,21.99,29.86
				c2.83,3.97,4.5,4.75,7.62,0.09c9.85-14.69,20.11-29.11,30.22-43.63c3.12-4.48,18.18-7.99,22.56-5.07
				c2.93,1.96,0.24,3.81-0.77,5.3c-6.37,9.33-12.88,18.56-19.35,27.82c-6.96,9.95-13.82,19.99-20.97,29.81
				c-2.92,4.01-4.08,8.18-4.01,13.09c0.19,13-0.07,26.01,0.11,39.01c0.07,5.14-1.73,7.33-7.09,7.03
				c-6.37-0.36-12.79-0.23-19.18-0.05c-4.11,0.12-5.84-1.64-5.8-5.65C657.8,499.62,657.75,492.38,657.75,481.88z"/>
			<path d="M1036.99,309.45c8.08,0.43,16.16,0.85,24.24,1.3c1.67,0.09,3.73-0.12,4.11,2.1c0.37,2.2-1.63,2.79-3.17,3.4
				c-2.96,1.18-6.07,2.02-8.96,3.34c-2.09,0.96-4.51,2.25-4.37,4.99c0.15,2.85,2.81,3.41,5.02,4.19c6.48,2.26,13.23,3.13,20.01,3.76
				c6.57,0.6,13.17,0.91,19.73,1.67c13.32,1.56,26.29,19.53,23.78,32.62c-0.86,4.51-3.37,7.7-7.23,10.03
				c-24.45,14.76-48.14,30.77-73.33,44.3c-1.48,0.8-3.39,3.21-4.83,0.67c-1.19-2.08,1.45-3.23,2.79-4.42
				c17.3-15.23,36.2-28.43,54.51-42.36c4.19-3.19,7-6.82,5.38-11.82c-1.83-5.67-4.55-11.14-11.64-12.24
				c-7.97-1.24-15.89-2.75-23.86-4c-9.54-1.5-17.27-5.95-22.78-13.92c-3.87-5.61-7.5-11.39-11.21-17.11
				c-2.72-4.2-1.52-6.35,3.47-6.39c2.77-0.02,5.55,0,8.32,0C1036.98,309.52,1036.99,309.48,1036.99,309.45z"/>
		</g>
	</g>
</g>
<g id="color">
</g>
</svg>
